<?xml version="1.0" encoding="UTF-8"?>
<svg id="Layer_1" data-name="Layer 1" xmlns="http://www.w3.org/2000/svg" viewBox="0 0 182 70.78">
  <defs>
    <style>
      .cls-1 {
        fill: #282828;
        stroke-width: 0px;
      }
    </style>
  </defs>
  <g id="Logo_1" data-name="Logo 1">
    <path class="cls-1" d="M64.85,48.8s0-.02,0-.03c0-.13-.03-.26-.04-.39,0,0,0-.02,0-.03,0-.13-.03-.26-.04-.39,0,0,0-.02,0-.03,0-.13-.03-.26-.04-.39,0,0,0-.02,0-.03"/>
    <path class="cls-1" d="M0,50.87c.39-9.34,14.78-16.84,32.51-16.84s32.12,7.51,32.51,16.84l-2.97-35.65c-9.05-2.08-19.04-3.24-29.54-3.24s-20.49,1.16-29.54,3.24L0,50.87Z"/>
    <path class="cls-1" d="M159.83,9.46c-.39,9.34-14.78,16.84-32.51,16.84s-32.12-7.51-32.51-16.84l2.97,35.65c9.05,2.08,19.04,3.24,29.54,3.24s20.49-1.16,29.54-3.24l2.97-35.65Z"/>
    <path class="cls-1" d="M87.17,52.97L83.28.48l-1.71-.17c-3.96-.4-7.96-.41-11.92-.02l-1.99.2,5.21,70.3h0c5.14-.52,10.32-.52,15.47-.02l.15.02-1.32-17.81Z"/>
    <path class="cls-1" d="M182,.48h0c-5.13-.52-10.29-.53-15.42-.02l-.2.02-5.21,70.3h.07c5.17-.52,10.38-.52,15.55,0h0S182,.48,182,.48Z"/>
    <path class="cls-1" d="M87.74,60.68s5.96,2.29,21.58,2.29l-.57-7.71c-15.62,0-21.58-2.29-21.58-2.29l.57,7.71Z"/>
  </g>
</svg>